<svg width="22" height="22" viewBox="0 0 22 22" fill="none" xmlns="http://www.w3.org/2000/svg">
<path d="M8.41074 9.92275C7.69269 9.2047 7.33366 8.3415 7.33366 7.33317C7.33366 6.32484 7.69269 5.46164 8.41074 4.74359C9.1288 4.02553 9.99199 3.6665 11.0003 3.6665C12.0087 3.6665 12.8719 4.02553 13.5899 4.74359C14.308 5.46164 14.667 6.32484 14.667 7.33317C14.667 8.3415 14.308 9.2047 13.5899 9.92275C12.8719 10.6408 12.0087 10.9998 11.0003 10.9998C9.99199 10.9998 9.1288 10.6408 8.41074 9.92275ZM3.66699 16.4998V15.7665C3.66699 15.2471 3.80083 14.7698 4.06849 14.3347C4.33616 13.8996 4.69121 13.5671 5.13366 13.3373C6.08088 12.8637 7.04338 12.5087 8.02116 12.2722C8.99894 12.0357 9.99199 11.9171 11.0003 11.9165C12.0087 11.9159 13.0017 12.0344 13.9795 12.2722C14.9573 12.5099 15.9198 12.8649 16.867 13.3373C17.31 13.5665 17.6654 13.8989 17.9331 14.3347C18.2007 14.7704 18.3343 15.2477 18.3337 15.7665V16.4998C18.3337 17.004 18.1543 17.4358 17.7956 17.7951C17.4369 18.1544 17.0051 18.3338 16.5003 18.3332H5.50033C4.99616 18.3332 4.56471 18.1538 4.20599 17.7951C3.84727 17.4364 3.6676 17.0046 3.66699 16.4998Z" fill="white"/>
</svg>
